<?xml version="1.0" standalone="no"?>
<!DOCTYPE svg PUBLIC "-//W3C//DTD SVG 20010904//EN"
 "http://www.w3.org/TR/2001/REC-SVG-20010904/DTD/svg10.dtd">
<svg version="1.0" xmlns="http://www.w3.org/2000/svg"
 width="2880.000000pt" height="2021.000000pt" viewBox="0 0 2880.000000 2021.000000"
 preserveAspectRatio="xMidYMid meet">
<metadata>
Created by potrace 1.15, written by Peter Selinger 2001-2017
</metadata>
<g transform="translate(0.000000,2021.000000) scale(0.100000,-0.100000)"
fill="#000000" stroke="none">
<path d="M0 15850 l0 -4360 113 74 c61 41 164 104 229 140 120 69 377 191 384
183 6 -6 -38 -481 -96 -1022 -11 -104 -23 -212 -26 -240 -4 -35 -98 -262 -305
-741 l-299 -691 0 -4596 0 -4597 3653 4 c2008 2 3660 5 3670 7 9 2 17 6 17 10
0 4 17 13 38 19 20 7 57 21 82 32 96 44 152 59 169 45 14 -10 14 -10 3 4 -11
14 -5 19 50 39 35 13 69 28 75 33 7 5 13 7 13 3 0 -4 18 3 41 14 23 12 47 19
55 16 10 -4 12 -2 8 6 -5 7 -2 9 9 5 9 -3 17 -2 19 2 2 4 39 22 83 40 44 18
94 38 110 46 24 10 94 35 115 40 3 1 26 12 53 24 26 12 53 19 60 15 6 -4 8 -3
4 1 -7 8 293 134 321 135 7 0 23 6 35 14 24 15 269 116 282 116 4 0 1 -8 -6
-17 -13 -16 -12 -17 4 -4 9 8 15 16 12 19 -8 9 56 33 68 25 5 -3 8 -2 4 3 -7
12 230 107 245 98 7 -4 8 -3 4 4 -7 11 7 16 41 15 7 -1 11 3 8 7 -4 7 79 45
100 45 6 0 12 3 15 6 9 11 233 102 249 102 9 0 29 9 45 20 15 11 41 20 56 21
15 1 26 4 23 9 -4 6 32 24 62 31 6 2 35 14 65 28 102 48 182 78 193 71 5 -3 7
-2 4 3 -8 13 108 58 124 49 8 -5 10 -4 5 4 -4 6 0 14 11 18 10 3 70 28 133 56
63 27 120 50 125 51 6 1 24 9 40 18 17 8 102 46 190 82 88 37 172 74 188 82
15 8 27 12 27 7 0 -4 4 -3 8 2 12 17 63 36 75 29 7 -4 9 -4 5 1 -9 10 90 57
103 49 5 -3 9 -1 9 4 0 5 15 15 33 22 17 7 64 28 102 46 39 18 77 34 85 36 8
2 17 5 20 8 14 15 173 79 182 73 6 -3 8 -2 5 4 -3 5 33 27 81 48 48 21 130 58
182 83 175 82 209 95 194 70 -4 -7 -3 -8 5 -4 6 4 9 11 6 16 -8 12 73 53 87
44 7 -4 8 -3 4 4 -4 7 -3 12 3 12 11 0 124 54 514 244 119 58 218 105 220 103
1 -1 16 8 33 20 17 12 34 20 38 16 3 -3 6 -1 6 6 0 8 6 11 16 7 8 -3 13 -2 10
3 -9 15 40 31 54 18 10 -9 11 -9 6 0 -7 13 15 27 149 98 50 27 124 66 165 88
41 22 81 44 88 50 6 5 12 6 12 3 0 -4 10 3 22 14 12 11 28 18 36 15 7 -2 11
-1 8 3 -5 8 76 53 90 51 4 0 10 3 13 8 9 14 235 146 249 146 6 0 10 3 7 5 -9
9 35 33 47 26 7 -4 8 -3 4 4 -3 6 3 16 14 22 11 6 20 8 20 4 0 -3 8 3 18 14 9
12 24 22 32 24 8 2 21 11 28 21 7 9 17 15 22 12 4 -3 10 2 14 10 3 8 10 15 16
15 6 0 8 -5 4 -12 -4 -7 -3 -8 5 -4 6 4 9 11 6 15 -6 11 81 72 91 63 5 -4 6
-3 2 2 -9 10 63 67 75 59 4 -2 6 -1 5 4 -2 5 27 37 64 72 37 35 81 83 96 107
16 24 33 40 37 36 5 -4 5 -1 1 6 -5 8 -1 21 8 30 8 10 22 34 30 53 23 56 5 96
-85 193 -43 46 -75 87 -71 91 4 5 2 5 -5 1 -13 -7 -155 97 -148 108 3 3 2 4
-1 1 -11 -7 -65 25 -59 35 4 6 -2 10 -11 10 -17 0 -92 45 -105 63 -3 5 -10 9
-15 9 -22 1 -53 22 -47 31 3 6 2 7 -4 4 -13 -8 -65 27 -56 38 5 4 2 5 -5 1 -7
-5 -21 -2 -30 6 -9 8 -29 20 -44 27 -15 8 -25 19 -21 24 3 6 1 7 -5 3 -15 -9
-73 24 -65 37 3 6 1 7 -5 3 -14 -8 -234 113 -227 125 3 4 -3 7 -12 7 -25 -1
-174 82 -168 93 4 5 0 6 -8 3 -8 -3 -65 24 -127 60 -62 37 -117 66 -121 66 -5
0 -9 5 -9 10 0 6 -5 10 -10 10 -17 0 -190 102 -190 112 0 5 -4 7 -10 3 -5 -3
-18 2 -28 12 -10 10 -23 19 -29 20 -6 1 -31 15 -55 30 -66 43 -80 51 -120 73
-21 11 -38 25 -38 30 0 6 -3 9 -7 8 -10 -3 -102 54 -130 81 -13 11 -23 18 -23
15 0 -5 -64 41 -87 62 -7 7 -9 15 -5 18 3 4 0 5 -8 1 -8 -3 -27 5 -42 17 -14
13 -46 38 -70 57 -70 55 -225 218 -252 264 -41 72 -50 134 -31 213 9 38 22 74
29 79 6 6 12 17 14 25 6 26 73 101 84 94 6 -4 8 -2 4 4 -9 14 100 106 115 96
7 -4 9 -3 6 3 -9 14 40 46 56 37 7 -4 9 -4 5 1 -10 10 8 23 96 68 38 20 73 34
77 31 5 -3 9 -1 9 4 0 8 96 43 155 58 6 1 40 14 78 28 37 14 67 23 67 20 0 -4
6 -2 13 3 6 6 68 29 137 53 69 23 139 48 157 56 17 8 34 14 38 14 5 0 73 25
152 55 80 30 150 52 156 48 7 -3 9 -3 5 2 -4 4 52 31 125 60 72 29 172 68 222
89 49 20 95 34 103 31 8 -3 10 0 6 7 -5 8 -2 9 9 5 10 -3 17 -2 17 4 0 5 12
14 28 21 15 6 56 24 91 40 35 16 70 27 78 24 8 -3 12 -2 9 3 -3 4 18 18 47 31
29 13 89 41 135 63 45 21 89 36 98 33 8 -3 12 -2 9 3 -5 10 123 80 158 87 11
2 30 12 41 22 31 28 65 44 78 36 6 -4 8 -3 5 3 -8 13 50 46 65 37 7 -5 8 -3 3
6 -6 10 -4 12 8 7 10 -4 16 -2 14 6 -1 7 4 11 11 10 6 -2 12 2 12 8 0 5 5 7
10 4 6 -3 10 -2 10 4 0 6 21 23 48 38 26 15 49 30 52 33 3 3 18 14 33 24 16 9
27 20 24 22 -3 3 -69 -6 -148 -20 -282 -50 -632 -90 -1060 -121 l-85 -6 -26
39 c-45 68 -154 101 -272 82 -35 -6 -72 -13 -81 -16 -37 -15 61 176 111 215
13 10 24 21 24 23 0 3 -18 10 -41 17 -71 21 -148 -10 -199 -81 l-29 -40 5 39
c20 137 66 275 114 344 l21 29 -22 0 c-12 0 -41 -11 -63 -24 l-42 -24 1 139 0
139 47 0 c26 0 78 7 117 15 237 50 461 206 461 321 0 68 -138 243 -205 260
-14 3 -25 8 -25 10 0 2 20 31 44 64 79 107 135 255 121 319 -13 61 -92 103
-196 103 -114 1 -172 -48 -203 -168 -20 -79 -20 -215 0 -283 8 -29 14 -54 12
-55 -31 -18 -116 -92 -160 -140 l-57 -61 25 64 c32 78 42 172 24 206 -22 41
-94 68 -181 69 -67 1 -80 -2 -118 -27 -31 -20 -50 -44 -69 -85 -25 -53 -27
-66 -27 -197 0 -117 3 -146 18 -173 10 -19 17 -36 15 -38 -3 -2 -20 -7 -38
-10 -27 -6 -32 -4 -27 8 9 24 -10 155 -34 233 -25 84 -66 169 -119 246 l-38
56 48 36 c104 77 199 254 208 384 4 68 3 73 -23 97 -37 35 -119 60 -191 60
-48 0 -71 -6 -107 -27 -87 -51 -121 -149 -115 -335 2 -65 7 -124 12 -133 6
-13 -3 -22 -41 -40 -26 -13 -71 -45 -99 -71 l-52 -49 -26 45 c-37 63 -127 158
-185 195 -70 45 -119 43 -169 -7 -78 -78 -107 -194 -69 -269 17 -32 75 -84
137 -121 48 -28 181 -72 222 -73 31 0 35 -5 62 -62 42 -88 204 -249 303 -300
l72 -38 -16 -42 c-41 -108 -8 -355 71 -539 l16 -37 -28 15 c-31 16 -61 18 -95
5 -18 -7 -44 -3 -101 15 -131 41 -230 28 -360 -48 -79 -47 -185 -148 -205
-196 -8 -18 -17 -29 -22 -25 -9 10 -112 414 -106 419 2 3 16 0 31 -6 36 -13
177 -13 291 1 50 6 96 11 103 12 22 1 13 26 -24 66 -46 51 -88 65 -179 58
l-72 -5 23 56 c59 149 30 232 -80 232 -30 0 -33 3 -50 55 -21 67 -69 117 -128
134 -85 26 -82 22 -106 122 -12 52 -32 128 -43 170 l-20 76 -129 97 c-70 53
-131 96 -135 96 -5 0 -91 -82 -192 -182 -101 -101 -186 -185 -189 -188 -3 -2
-4 56 -3 130 2 126 -3 165 -71 573 -40 240 -71 439 -68 442 2 3 40 -13 84 -35
101 -51 185 -64 364 -57 153 6 269 27 350 63 55 25 110 69 110 88 1 6 9 20 18
32 14 17 33 22 89 26 92 7 167 41 171 79 3 22 -4 30 -42 50 -37 19 -46 29 -46
50 0 68 -70 104 -237 122 l-110 12 -35 45 c-22 29 -56 56 -98 78 -62 32 -69
34 -137 28 -80 -7 -174 -36 -215 -66 -34 -25 -33 -25 -104 9 -32 15 -76 34
-97 40 -38 13 -118 11 -149 -3 -15 -7 -18 -3 -18 18 0 25 2 26 61 26 63 0 135
23 254 83 32 16 98 41 145 54 233 67 312 153 228 248 -33 38 -95 75 -126 75
-31 0 -32 11 -6 45 59 77 34 147 -69 195 -34 17 -72 30 -84 30 -27 0 -28 4 -8
60 34 95 10 142 -100 196 -56 28 -74 41 -70 53 31 81 7 158 -59 191 -52 25
-178 28 -252 5 -27 -8 -51 -11 -55 -7 -4 4 -20 126 -37 272 -28 247 -33 274
-76 400 -25 74 -86 268 -136 430 -174 562 -167 541 -395 1130 -18 47 -61 157
-95 245 -109 286 -123 320 -131 328 -4 5 -58 -18 -120 -51 -63 -33 -224 -117
-359 -187 -135 -70 -250 -132 -257 -138 -6 -7 -77 -166 -156 -353 -114 -269
-169 -415 -257 -685 -62 -189 -129 -396 -150 -459 -21 -63 -91 -277 -156 -475
l-117 -360 -13 -195 c-18 -279 -24 -328 -40 -341 -8 -6 -27 -34 -43 -63 -16
-28 -48 -65 -70 -81 -55 -41 -67 -66 -54 -110 11 -33 10 -36 -17 -50 -37 -19
-60 -52 -60 -87 0 -18 -5 -28 -15 -28 -8 0 -29 -13 -47 -29 -18 -15 -43 -31
-56 -35 -36 -12 -80 -54 -87 -85 -5 -22 -13 -30 -37 -35 -17 -3 -34 -4 -36 -1
-4 4 14 1216 22 1444 l1 34 -155 59 c-85 33 -164 64 -175 68 -11 5 -55 23 -98
40 -47 20 -74 36 -70 43 4 6 0 8 -10 4 -18 -7 -87 10 -87 21 0 5 -29 16 -65
27 -37 10 -62 22 -58 28 3 6 1 7 -5 3 -6 -4 -21 -2 -33 5 -15 8 -19 8 -15 0 4
-6 3 -11 -3 -11 -5 0 -13 -9 -16 -20 -4 -12 -11 -17 -18 -14 -7 4 -9 4 -5 -1
10 -11 -33 -86 -45 -78 -6 3 -7 1 -3 -6 4 -6 3 -17 -2 -24 -5 -7 -23 -37 -39
-67 -17 -30 -100 -170 -185 -310 -100 -165 -183 -317 -235 -430 -45 -96 -150
-323 -233 -505 -84 -181 -166 -367 -182 -413 -21 -59 -388 -1148 -519 -1539
-2 -7 -78 61 -167 149 l-164 161 11 146 c12 160 33 450 56 801 9 124 31 450
50 725 19 275 46 667 60 870 14 204 29 420 34 480 5 61 7 112 6 113 -2 2 -36
-3 -77 -12 -123 -26 -505 -112 -648 -145 -47 -11 -102 -23 -122 -26 -46 -9
-26 86 -199 -950 -52 -308 -50 -301 -216 -860 -24 -82 -53 -179 -63 -215 -10
-36 -39 -132 -64 -215 -24 -82 -70 -237 -101 -344 -55 -185 -81 -258 -138
-381 -29 -62 -30 -70 9 150 14 80 34 197 45 260 10 63 37 216 59 340 22 124
52 290 66 370 14 80 38 219 55 309 16 89 29 174 29 188 0 13 -20 52 -44 86
-55 79 -530 761 -618 887 -62 91 -69 106 -143 335 -42 132 -97 301 -121 374
-24 74 -41 137 -38 140 3 4 198 6 432 5 414 0 575 -8 912 -45 311 -33 731
-100 1045 -165 288 -59 330 -69 488 -107 75 -19 139 -32 141 -28 2 3 12 42 21
86 57 279 190 740 322 1120 59 169 204 534 254 641 21 45 39 86 39 89 0 13
270 554 329 659 33 60 61 111 61 112 0 3 87 149 167 282 170 281 424 647 626
904 56 71 113 144 128 162 44 59 222 267 285 335 33 36 76 83 95 105 l35 38
184 -258 c193 -271 507 -690 569 -760 20 -22 76 -92 126 -155 93 -119 291
-362 336 -414 15 -16 91 -104 169 -195 78 -91 148 -167 154 -169 6 -2 14 -9
19 -15 4 -6 6 0 5 14 -2 15 2 25 10 25 6 0 12 -4 11 -9 0 -5 5 -13 13 -17 10
-7 8 -9 -6 -9 -11 0 -17 -2 -14 -5 3 -3 19 -2 36 1 20 4 29 11 25 19 -2 8 -11
11 -19 8 -8 -3 -14 0 -14 6 0 6 4 11 9 11 11 0 24 31 16 39 -3 3 -10 -1 -15
-9 -9 -13 -10 -13 -10 0 1 8 7 24 15 34 14 19 15 19 15 1 0 -18 1 -18 20 0 16
14 17 20 8 26 -10 7 -9 12 5 26 10 11 17 13 17 5 0 -7 7 -12 15 -12 8 0 15 9
15 21 0 13 -4 18 -12 13 -6 -4 -8 -3 -4 4 3 6 20 13 36 17 26 6 50 30 50 49 0
15 -19 4 -25 -14 -3 -11 -11 -20 -16 -20 -11 0 13 35 55 84 21 23 27 26 32 13
3 -9 2 -22 -2 -29 -4 -7 -4 -10 1 -6 4 4 14 3 22 -3 9 -9 13 -8 13 0 0 6 -5
11 -10 11 -6 0 -5 6 2 14 7 8 18 11 23 8 6 -3 4 2 -4 11 -11 14 -11 20 0 34
12 14 12 15 1 9 -11 -7 -12 -4 -4 10 17 30 125 131 149 138 11 4 24 14 27 23
5 12 3 13 -7 7 -7 -5 -4 -1 6 8 11 10 23 16 27 13 5 -3 11 -1 15 5 4 6 11 8
16 5 5 -3 6 1 3 9 -3 9 -11 13 -18 10 -6 -4 5 8 24 25 38 34 50 37 68 19 10
-10 15 -10 22 2 7 11 5 16 -5 18 -9 2 -12 8 -8 14 4 8 0 9 -13 5 -19 -6 -19
-6 0 6 11 7 28 20 39 31 16 15 21 16 29 5 7 -11 9 -9 5 6 -3 15 7 29 34 50 22
16 39 32 39 37 0 4 5 8 10 8 12 0 14 -27 2 -32 -4 -1 0 -11 10 -20 15 -15 18
-15 18 -3 0 8 -4 15 -9 15 -5 0 -7 9 -4 21 4 12 11 18 20 15 8 -3 17 -6 19 -6
3 0 2 -6 -2 -12 -4 -8 -3 -10 2 -5 5 5 9 14 9 20 1 7 7 11 14 9 7 -1 9 2 6 9
-5 8 -10 8 -18 0 -17 -17 -27 -13 -27 8 0 23 16 37 23 19 3 -10 7 -10 20 1 23
18 22 37 0 20 -10 -8 0 5 22 29 22 23 41 42 43 42 6 0 -19 -39 -28 -45 -6 -4
-5 -12 4 -21 19 -18 30 -18 22 1 -3 8 1 29 9 47 8 18 14 26 15 17 0 -9 7 -16
15 -16 18 0 19 9 4 24 -15 15 45 68 75 68 12 0 27 5 33 12 7 6 21 9 32 6 10
-3 21 0 25 5 9 15 -43 21 -55 6 -6 -8 -17 -14 -23 -14 -6 0 2 11 18 25 17 14
36 23 43 21 7 -3 12 0 10 7 -1 7 8 11 23 9 18 -1 21 1 11 7 -19 12 -3 34 21
28 14 -4 18 -2 14 9 -5 12 41 46 59 44 4 -1 22 16 42 37 19 21 32 30 29 20 -4
-12 -2 -17 6 -14 7 2 13 11 13 20 0 8 18 28 40 43 22 15 55 38 72 52 18 13 33
20 33 14 0 -6 -4 -12 -9 -14 -5 -2 -3 -14 5 -28 l14 -25 -6 30 c-5 25 -4 28 7
18 17 -17 46 -16 52 0 3 8 -1 14 -9 14 -7 0 -11 -4 -8 -9 3 -4 0 -8 -5 -8 -6
0 -11 5 -11 11 0 5 -5 7 -10 4 -19 -12 -10 11 12 29 18 15 20 16 15 2 -4 -10
-1 -16 8 -16 9 0 14 8 12 22 -1 18 6 25 33 34 19 6 35 17 35 23 0 6 17 20 37
31 44 23 55 25 40 8 -8 -10 -5 -13 13 -13 19 0 21 3 13 19 -5 10 -6 22 -1 26
24 23 84 48 112 46 17 -1 31 1 31 6 0 4 -7 8 -15 8 -8 0 -15 4 -15 9 0 10 34
21 70 21 20 0 22 2 10 10 -11 7 -12 10 -2 10 12 0 45 -25 127 -96 17 -14 24
-23 18 -19 -7 3 -13 1 -13 -4 0 -6 10 -11 23 -11 24 0 92 -52 81 -63 -4 -4
-12 1 -19 10 -6 8 -18 14 -26 11 -9 -3 -5 -10 14 -23 21 -13 31 -15 39 -7 19
19 50 -15 37 -40 -9 -16 -8 -19 1 -13 10 6 12 1 8 -19 -3 -14 -1 -26 3 -26 5
0 9 5 9 10 0 6 6 10 13 8 7 -2 13 2 13 7 0 6 -5 9 -11 8 -6 -2 -11 6 -12 17
-1 14 2 17 10 10 52 -43 61 -51 51 -46 -7 3 -15 -1 -18 -9 -4 -12 0 -14 19 -9
33 8 88 -30 80 -56 -7 -21 -2 -24 38 -34 21 -5 27 -4 21 5 -4 7 11 -2 34 -21
23 -18 42 -35 42 -38 0 -2 -6 1 -14 7 -7 6 -22 8 -31 4 -15 -5 -17 -3 -12 11
5 11 3 15 -5 10 -7 -5 -8 -3 -3 6 5 8 4 11 -3 6 -12 -7 -5 -37 12 -48 6 -4 22
-8 34 -8 13 0 31 -8 40 -18 10 -10 13 -12 8 -5 -5 8 -6 17 -2 20 4 4 10 3 14
-3 4 -6 17 -16 30 -23 12 -7 20 -16 16 -22 -4 -6 -12 -5 -22 3 -15 11 -15 11
-4 -4 8 -10 9 -18 3 -22 -6 -4 -7 -14 -4 -24 6 -14 8 -13 13 8 4 17 12 24 24
22 13 -2 16 1 10 10 -4 7 2 5 13 -4 11 -10 25 -18 32 -18 7 0 40 -20 74 -44
98 -69 296 -182 429 -246 138 -65 312 -132 344 -132 11 0 64 16 116 35 439
165 989 275 1573 316 151 11 580 6 741 -9 l112 -10 103 47 c223 102 711 350
897 457 46 26 91 47 100 47 22 1 62 -7 85 -15 40 -14 46 -14 52 2 5 13 8 14
14 3 6 -9 11 -10 15 -2 4 6 2 11 -3 11 -6 0 -11 7 -11 15 0 8 -6 12 -14 9 -8
-3 -12 -12 -9 -20 4 -10 -2 -14 -20 -14 -32 0 -44 16 -17 23 11 3 20 11 20 19
0 10 -3 9 -10 -2 -9 -13 -10 -13 -10 0 0 10 -3 11 -8 4 -4 -6 -20 -14 -37 -18
l-30 -7 30 21 c17 11 34 20 39 20 5 0 18 8 28 17 17 15 20 15 28 3 9 -14 11
-13 14 9 0 5 5 13 10 18 5 5 6 3 2 -4 -4 -7 -2 -13 3 -13 6 0 11 7 11 15 0 21
49 40 64 25 8 -8 5 -9 -9 -5 -15 5 -16 4 -6 -3 9 -7 10 -12 2 -16 -6 -4 -11
-2 -11 3 0 6 -5 11 -11 11 -6 0 -9 -6 -6 -14 3 -8 -2 -16 -14 -19 -27 -7 -24
-22 5 -22 13 0 22 3 20 7 -2 3 7 16 22 27 20 16 23 24 15 39 -8 16 -6 21 14
30 17 8 25 8 25 1 0 -6 5 -7 11 -4 6 4 17 -1 25 -11 9 -11 13 -13 9 -6 -3 6 0
12 7 13 7 0 4 4 -7 9 -11 5 -14 9 -7 9 6 1 12 6 12 12 0 8 -5 7 -15 -1 -9 -7
-18 -11 -21 -8 -3 3 12 15 32 27 33 20 38 20 54 6 21 -19 26 -19 33 -1 3 8 0
17 -8 20 -10 3 -12 0 -8 -12 6 -15 5 -15 -11 -3 -17 14 -17 15 0 28 10 7 21
13 26 13 4 0 31 16 58 36 28 20 54 34 57 30 4 -3 1 -6 -5 -6 -20 0 -13 -17 9
-23 13 -4 18 -10 13 -18 -4 -7 -3 -10 4 -5 6 3 13 2 17 -4 4 -6 11 -7 17 -4 7
5 4 12 -7 21 -11 7 -15 13 -9 13 5 0 2 5 -6 11 -13 8 -12 10 3 7 10 -2 18 -7
18 -13 0 -14 27 -27 39 -20 6 3 9 14 9 23 -1 15 -2 15 -6 0 -2 -10 -9 -18 -15
-18 -5 0 -8 7 -4 15 3 9 0 15 -9 15 -8 0 -15 7 -15 15 0 18 -17 20 -23 3 -2
-7 -8 -10 -11 -6 -11 10 101 78 118 72 8 -3 17 -1 21 5 3 7 0 8 -9 5 -28 -11
-17 4 20 25 29 18 35 19 30 6 -3 -9 -2 -13 4 -10 6 3 10 12 10 20 0 17 35 9
52 -13 10 -12 10 -14 1 -8 -7 4 -13 2 -13 -3 0 -6 11 -11 25 -11 14 0 25 5 25
11 0 5 -4 8 -9 5 -5 -3 -11 1 -15 9 -3 8 0 17 6 21 7 4 8 3 4 -4 -4 -7 -3 -12
3 -12 5 0 9 9 8 20 -1 13 -5 16 -11 10 -6 -6 -21 -10 -34 -10 -21 0 -22 2 -12
15 7 8 16 15 21 15 5 0 31 16 58 35 26 19 57 35 67 35 13 0 9 -6 -14 -17 -18
-8 -31 -18 -28 -20 2 -2 14 2 26 9 18 10 24 10 27 1 3 -7 9 -13 14 -13 4 0 6
6 3 14 -5 12 0 13 30 4 25 -8 33 -15 26 -22 -15 -15 -12 -36 5 -30 8 4 13 10
10 14 -18 29 56 8 97 -27 9 -8 21 -12 27 -9 6 4 28 -2 49 -13 22 -11 43 -17
47 -13 5 4 5 1 1 -5 -5 -9 0 -13 15 -13 19 0 20 -2 8 -17 -13 -16 -12 -17 4
-4 12 9 21 10 30 3 12 -10 17 -12 38 -12 6 0 8 -8 4 -18 -3 -11 2 -32 11 -48
13 -23 15 -24 11 -6 -4 18 -1 22 21 22 26 1 26 1 8 15 -26 19 -34 19 -39 -2
-4 -16 -5 -16 -6 -1 0 9 3 20 9 23 12 7 68 -22 92 -48 9 -11 21 -17 25 -14 4
3 35 -8 68 -25 33 -16 52 -26 42 -24 -11 4 -16 2 -11 -5 3 -6 14 -9 25 -6 10
3 25 -3 35 -14 9 -10 22 -16 28 -13 6 3 2 -2 -8 -10 -22 -18 -14 -21 14 -6 13
7 25 4 46 -13 16 -12 30 -21 31 -19 10 8 21 -1 17 -13 -4 -11 -2 -13 9 -9 13
5 103 -35 132 -59 6 -4 32 -21 59 -38 38 -24 46 -33 35 -40 -8 -5 -9 -9 -4 -9
6 0 16 5 21 10 8 8 15 6 24 -5 7 -8 19 -15 27 -15 9 0 13 -6 10 -14 -4 -10 -1
-13 8 -10 16 6 105 -43 105 -58 0 -5 3 -7 8 -4 4 2 16 -3 27 -11 15 -12 16
-14 3 -10 -12 4 -15 2 -11 -9 4 -10 14 -14 29 -11 19 3 22 1 14 -13 -5 -10 -6
-20 -3 -24 3 -3 2 -6 -3 -6 -5 0 -10 -10 -11 -21 -2 -17 1 -19 10 -10 15 15
30 14 21 -1 -6 -10 -4 -10 7 0 18 17 34 15 20 -2 -12 -15 -6 -23 17 -22 6 1
12 5 11 11 0 5 8 13 18 17 15 7 14 8 -4 4 -26 -5 -35 4 -24 22 5 8 40 -11 112
-61 162 -111 164 -113 145 -132 -18 -19 -21 -35 -6 -35 5 0 9 4 7 9 -1 5 2 9
7 9 5 0 13 6 18 14 7 10 11 10 15 1 2 -7 10 -13 16 -13 14 -1 57 -35 57 -45 0
-3 -6 -3 -12 1 -9 5 -9 2 1 -9 15 -19 36 -23 25 -5 -4 7 -3 8 4 4 6 -4 8 -14
5 -24 -6 -14 -4 -15 9 -4 19 15 31 3 17 -18 -14 -24 -10 -36 5 -14 14 19 15
19 43 -2 32 -24 46 -84 19 -84 -10 0 -16 -9 -16 -22 0 -20 2 -19 25 8 14 16
25 34 25 41 0 7 7 10 16 6 14 -5 14 -8 -5 -22 -12 -9 -19 -20 -15 -24 12 -12
24 -8 24 8 0 8 5 15 11 15 18 0 80 -52 76 -64 -2 -6 2 -17 10 -24 7 -8 11 -18
8 -23 -9 -13 9 -11 23 3 10 9 16 8 29 -5 16 -16 16 -17 0 -17 -9 0 -17 5 -17
12 0 6 -3 8 -7 4 -5 -4 0 -14 11 -21 10 -8 15 -18 12 -23 -3 -5 2 -16 12 -23
15 -12 15 -12 6 1 -9 11 -9 18 1 27 11 10 24 3 65 -34 28 -25 48 -48 45 -51
-3 -3 -11 3 -19 13 -9 12 -15 15 -20 7 -4 -7 -2 -12 3 -12 16 0 13 -28 -3 -37
-12 -7 -11 -10 2 -23 14 -13 15 -12 9 2 -3 9 0 20 6 25 16 11 47 10 46 -2 -1
-6 -5 -9 -9 -8 -4 1 -11 -4 -14 -13 -4 -10 -2 -13 6 -8 7 5 9 0 6 -14 -5 -18
-4 -19 13 -9 11 7 17 17 15 24 -3 7 -1 15 4 18 6 4 10 -1 10 -9 0 -9 6 -13 14
-10 13 5 29 -18 30 -45 1 -8 7 -16 15 -19 9 -3 11 0 6 9 -5 8 1 6 13 -5 12
-10 20 -23 19 -29 -1 -6 7 -13 18 -15 25 -5 88 -69 80 -82 -3 -5 0 -12 6 -16
8 -5 9 -3 4 6 -5 8 8 1 28 -14 20 -16 37 -32 37 -37 0 -15 -20 -20 -40 -9 -11
6 -20 7 -20 2 0 -15 26 -33 36 -24 4 4 2 -1 -5 -11 -10 -13 -16 -14 -21 -6
-11 16 -18 -1 -15 -33 2 -15 -3 -35 -10 -45 -13 -17 -15 -17 -27 -2 -7 9 -19
18 -26 20 -9 3 -9 9 4 27 17 25 34 21 34 -9 0 -25 15 -25 17 0 2 19 -17 33
-49 36 -10 1 -15 -2 -12 -6 3 -5 0 -9 -6 -9 -6 0 -9 -4 -6 -8 6 -10 -22 -13
-44 -5 -8 4 -27 7 -43 8 -15 1 -31 6 -35 10 -4 5 1 5 10 2 11 -4 15 -2 12 7
-3 8 -16 11 -34 8 -17 -2 -37 1 -45 8 -9 7 -18 10 -22 6 -3 -3 -1 -6 5 -6 6 0
9 -7 5 -15 -4 -13 1 -15 26 -10 25 4 29 2 24 -10 -3 -9 -12 -14 -20 -11 -8 3
-12 2 -8 -3 3 -5 -8 -15 -25 -23 -16 -7 -30 -16 -30 -20 0 -5 -16 -8 -36 -8
-24 0 -33 4 -28 12 5 8 2 9 -10 5 -9 -4 -15 -3 -12 2 3 5 -1 12 -10 15 -8 3
-13 2 -10 -2 2 -4 -11 -8 -30 -9 -18 0 -31 3 -29 7 3 5 0 12 -6 15 -5 4 -8 14
-4 22 4 13 3 14 -10 3 -8 -7 -15 -20 -15 -29 0 -10 -3 -12 -8 -5 -4 6 -17 15
-30 19 -15 4 -21 12 -18 22 4 11 1 13 -14 8 -11 -4 -20 -2 -20 4 0 6 -7 8 -15
5 -14 -6 -14 -8 0 -18 12 -9 9 -14 -20 -34 -19 -12 -35 -17 -35 -11 0 6 -7 9
-15 6 -21 -9 -27 9 -8 24 14 12 16 12 8 -1 -4 -8 -4 -12 0 -7 5 4 10 17 12 28
2 16 0 18 -15 11 -9 -5 -22 -7 -29 -5 -6 2 -14 -1 -18 -6 -4 -7 1 -9 12 -5 17
5 17 5 0 -9 -17 -14 -17 -16 4 -36 12 -11 27 -18 33 -14 6 3 5 0 -3 -8 -10
-11 -15 -11 -18 -1 -3 6 -9 12 -14 12 -6 0 -8 -3 -6 -7 6 -13 -28 -40 -47 -37
-12 2 -16 -2 -12 -12 3 -9 1 -12 -4 -9 -6 3 -11 16 -11 28 -1 20 -2 21 -6 2
-3 -11 -10 -23 -15 -26 -5 -4 -2 -13 7 -22 16 -17 13 -37 -6 -37 -6 0 -8 4 -5
8 3 5 -1 9 -8 9 -8 0 -12 -7 -9 -16 3 -11 0 -10 -11 3 -20 25 -20 31 0 50 8 9
11 16 5 16 -5 0 -13 -4 -16 -10 -11 -18 -25 -11 -26 13 -1 17 -2 18 -6 4 -3
-13 -10 -16 -25 -11 -18 5 -19 4 -7 -9 8 -8 17 -13 22 -10 4 2 7 0 7 -5 0 -23
84 -91 97 -79 3 4 -5 11 -18 16 -15 6 -18 10 -8 10 26 1 44 28 30 45 -10 12
-8 13 8 9 12 -3 18 -10 15 -15 -12 -19 -10 -103 3 -130 7 -15 13 -30 13 -33 0
-3 -25 -17 -55 -30 -130 -58 -171 -104 -159 -183 3 -26 13 -62 20 -81 8 -18
14 -35 14 -36 0 -2 -31 -12 -68 -24 -129 -39 -196 -113 -171 -188 6 -19 24
-50 41 -68 l29 -34 -28 -7 c-67 -14 -94 -27 -136 -65 -57 -49 -74 -94 -54
-141 28 -68 108 -114 286 -167 54 -16 127 -44 162 -61 35 -18 103 -48 151 -66
74 -29 100 -34 171 -34 46 0 106 7 132 15 52 15 60 14 75 -15 9 -17 5 -20 -29
-30 -21 -5 -54 -21 -74 -34 -31 -22 -37 -23 -48 -10 -52 63 -153 56 -317 -23
l-73 -36 -23 22 c-12 12 -61 35 -109 51 -118 42 -219 44 -298 8 -67 -30 -119
-74 -144 -122 -19 -36 -20 -36 -85 -36 -89 -1 -211 -24 -265 -50 -50 -24 -80
-69 -71 -104 5 -19 -2 -26 -45 -45 -30 -14 -55 -33 -62 -48 -10 -22 -8 -28 16
-49 37 -32 118 -54 198 -54 72 0 83 -8 116 -82 25 -58 157 -117 320 -144 278
-46 544 -19 662 67 l43 31 91 -26 c50 -14 91 -27 92 -29 1 -1 24 -31 52 -67
132 -167 333 -312 575 -416 l99 -42 42 -73 c101 -177 218 -319 337 -409 39
-30 80 -62 90 -70 18 -14 19 -26 13 -172 l-6 -157 -74 -3 -74 -3 -88 -171
c-114 -223 -268 -543 -321 -669 -70 -164 -90 -232 -100 -345 -5 -58 -12 -134
-16 -169 l-7 -63 -56 5 c-88 9 -126 24 -182 72 -68 58 -140 85 -227 85 -46 0
-75 5 -92 17 -41 27 -81 66 -95 94 l-14 26 137 -1 c154 0 230 16 276 59 24 23
27 32 24 74 l-3 49 51 11 c62 14 173 67 231 110 46 33 83 95 83 136 0 32 -24
81 -57 116 -13 15 -23 35 -21 45 4 24 -85 78 -175 105 -54 17 -78 31 -121 74
-59 57 -163 115 -207 115 -15 0 -39 -4 -52 -9 -17 -7 -42 -5 -78 5 -30 7 -75
14 -100 14 l-46 0 1 42 c1 36 -3 44 -25 55 -33 16 -108 4 -199 -32 -52 -20
-72 -23 -127 -18 l-65 6 51 21 c28 12 67 34 87 49 29 24 35 34 32 60 -4 43
-63 77 -134 77 -59 0 -160 -29 -220 -63 -27 -16 -46 -21 -60 -16 -10 4 -36 8
-56 8 -20 1 -40 6 -43 11 -11 18 -60 11 -111 -16 -27 -14 -71 -27 -99 -30
-130 -12 -207 -66 -245 -171 -19 -52 -27 -63 -45 -63 -76 0 -128 -35 -139 -93
-8 -44 9 -128 39 -194 l24 -54 -47 6 c-88 12 -82 4 -82 124 0 118 -28 273 -58
325 -41 69 -123 100 -252 94 -96 -5 -144 -25 -197 -80 -76 -79 -88 -153 -97
-633 -4 -159 -8 -375 -11 -480 -3 -104 -7 -471 -10 -815 -7 -762 -22 -1364
-36 -1406 -5 -17 -23 -44 -40 -60 -28 -27 -36 -29 -104 -29 -67 0 -77 3 -112
31 -83 66 -109 179 -99 429 7 174 13 266 52 755 17 209 25 375 22 466 -3 136
-4 142 -31 177 -55 72 -195 118 -295 97 -71 -16 -137 -60 -163 -112 -21 -41
-22 -53 -23 -403 -1 -375 4 -450 49 -770 76 -534 93 -631 118 -681 74 -143
179 -194 402 -194 94 0 127 -4 154 -18 52 -26 51 -42 -2 -42 -166 0 -826 -39
-1117 -65 -85 -8 -160 -15 -166 -15 -5 0 -20 -9 -32 -20 -12 -12 -22 -17 -22
-13 0 4 -7 -3 -16 -15 -8 -12 -20 -20 -25 -16 -5 3 -8 1 -7 -5 5 -15 -62 -60
-83 -56 -11 2 -17 0 -14 -6 4 -5 12 -6 18 -2 7 4 6 -1 -2 -10 -8 -10 -16 -16
-18 -13 -2 2 -16 -7 -31 -21 -15 -14 -72 -62 -127 -106 -55 -45 -142 -116
-192 -160 -51 -43 -93 -77 -93 -74 0 3 -21 -16 -47 -42 -27 -26 -88 -82 -138
-126 -114 -101 -169 -151 -211 -193 -18 -19 -38 -31 -43 -28 -5 4 -11 0 -13
-9 -2 -8 -53 -65 -113 -127 -61 -62 -144 -150 -184 -195 -40 -46 -78 -80 -84
-76 -6 3 -7 1 -3 -6 10 -15 -13 -43 -27 -34 -6 4 -7 1 -2 -7 4 -7 4 -15 -1
-19 -5 -3 -22 -25 -38 -48 -16 -24 -33 -43 -37 -43 -5 0 -9 -5 -9 -11 0 -6
-21 -45 -47 -86 -26 -40 -48 -79 -49 -86 -1 -7 -10 -31 -21 -53 -13 -28 -18
-58 -17 -112 2 -70 3 -74 43 -117 22 -24 41 -43 41 -40 0 4 129 -42 188 -67
18 -8 29 -18 25 -22 -4 -4 0 -4 9 -1 19 7 280 -94 273 -106 -3 -4 0 -11 6 -15
8 -4 9 -3 5 4 -4 7 -1 12 8 12 9 0 16 -4 16 -10 0 -5 3 -9 8 -8 13 3 144 -52
153 -65 3 -5 9 -8 13 -8 20 3 26 0 20 -11 -4 -7 -3 -8 4 -4 14 9 144 -50 155
-70 4 -8 13 -14 20 -14 7 0 6 4 -3 10 -23 15 -7 12 26 -4 16 -8 41 -19 57 -25
15 -6 27 -15 27 -21 0 -6 4 -8 10 -5 10 6 491 -231 502 -249 4 -6 8 -8 8 -4 0
4 15 -1 33 -12 17 -11 47 -26 65 -34 17 -8 32 -17 32 -20 0 -5 -25 3 -80 27
-66 28 -182 7 -220 -39 -7 -7 -16 -12 -20 -9 -4 3 -10 -2 -13 -10 -4 -8 -15
-12 -27 -10 -11 2 -18 0 -15 -6 4 -5 11 -7 16 -4 16 11 9 -4 -14 -27 -12 -13
-32 -36 -45 -53 -15 -20 -20 -24 -16 -10 4 15 4 17 -4 6 -6 -8 -8 -21 -4 -29
3 -10 1 -13 -7 -8 -6 4 -10 4 -9 -1 4 -15 -13 -51 -27 -56 -8 -4 -11 -14 -8
-25 2 -10 -2 -26 -11 -34 -8 -9 -13 -17 -11 -20 2 -2 -2 -28 -10 -58 -8 -30
-15 -77 -15 -103 0 -49 22 -146 41 -180 7 -13 7 -23 0 -31 -8 -9 -7 -13 4 -13
8 0 12 5 9 11 -3 6 1 4 8 -5 41 -49 88 -97 122 -123 23 -17 35 -34 32 -43 -3
-8 -2 -11 3 -8 5 3 12 1 16 -5 4 -6 10 -8 15 -5 5 3 39 -12 75 -34 36 -21 62
-41 58 -43 -4 -3 -2 -3 4 -2 7 2 51 -15 98 -37 48 -22 99 -42 115 -46 17 -3
28 -8 26 -12 -2 -3 6 -7 17 -8 46 -3 98 -12 108 -19 6 -3 47 -6 90 -5 64 1 79
-1 80 -14 2 -23 4 -28 17 -53 7 -12 10 -22 7 -22 -3 0 -1 -8 4 -18 6 -11 6
-24 -2 -37 -9 -18 -9 -18 6 -7 14 12 18 9 32 -18 9 -18 38 -61 63 -97 26 -36
46 -70 44 -75 -1 -5 2 -7 7 -4 5 3 16 -5 25 -19 15 -23 13 -30 -7 -26 -5 1 -6
-3 -2 -9 5 -8 11 -8 19 -1 10 8 21 0 45 -29 18 -22 29 -45 25 -52 -5 -7 -3 -8
5 -3 14 8 63 -33 55 -47 -3 -5 -2 -7 3 -6 16 5 95 -70 87 -83 -5 -8 -3 -10 5
-5 8 5 31 -7 59 -31 26 -22 73 -57 105 -78 31 -21 57 -42 57 -48 0 -6 3 -7 6
-4 4 4 19 -2 33 -12 14 -10 36 -22 49 -25 12 -4 22 -12 22 -18 0 -6 3 -8 7 -5
3 4 15 0 25 -10 10 -9 18 -13 18 -10 0 3 14 1 30 -4 17 -6 30 -15 30 -20 0 -4
7 -6 17 -2 14 6 14 3 -2 -25 -10 -17 -22 -29 -26 -26 -4 2 -11 -1 -15 -7 -4
-8 -3 -9 4 -5 16 9 14 -10 -3 -59 -8 -22 -15 -48 -15 -57 0 -10 -3 -18 -7 -18
-23 0 -11 -453 13 -520 16 -44 23 -124 12 -144 -10 -19 -10 -20 5 -7 24 19 21
-1 -4 -33 -11 -14 -25 -23 -31 -20 -6 4 -8 3 -5 -2 3 -6 1 -16 -4 -24 -7 -13
-10 -13 -18 -1 -5 8 -11 9 -15 3 -3 -6 -1 -12 5 -14 7 -2 -39 -56 -101 -121
-62 -64 -118 -113 -124 -110 -6 3 -8 3 -4 -2 4 -4 -16 -32 -45 -62 -29 -30
-53 -59 -55 -64 -2 -5 -8 -9 -13 -9 -6 0 -7 5 -3 12 4 7 3 8 -5 4 -6 -4 -9
-11 -6 -15 6 -11 -76 -97 -90 -93 -5 2 -7 0 -3 -4 4 -4 -12 -28 -37 -53 -24
-25 -64 -67 -88 -93 -24 -26 -48 -44 -52 -40 -5 4 -5 2 -2 -4 6 -10 -71 -94
-89 -98 -5 0 -9 -7 -11 -15 -1 -8 -23 -37 -50 -65 -59 -62 -65 -66 -77 -59 -5
3 -6 1 -3 -5 4 -5 -5 -21 -21 -34 -15 -12 -29 -27 -31 -33 -2 -5 -7 -9 -12 -8
-5 2 -8 -1 -6 -6 3 -13 -153 -181 -169 -181 -9 0 -13 -4 -9 -9 3 -6 -21 -38
-52 -73 -32 -35 -77 -84 -101 -110 -23 -26 -42 -44 -43 -40 0 4 -3 0 -7 -10
-6 -15 -98 -121 -162 -188 -14 -15 -38 -43 -53 -63 l-28 -37 6540 0 6541 0 0
10105 0 10105 -14400 0 -14400 0 0 -4360z m21530 -1500 c36 -6 110 -20 165
-32 55 -11 120 -24 145 -29 72 -14 402 -99 416 -107 8 -5 9 -15 3 -29 l-8 -23
-36 24 c-58 40 -88 42 -150 11 -42 -22 -61 -26 -92 -21 -98 17 -219 18 -254 3
-35 -14 -36 -14 -66 18 -29 31 -82 56 -145 69 -20 5 -28 13 -28 27 0 25 -16
56 -44 88 l-21 24 25 -6 c14 -3 54 -11 90 -17z m1663 -486 c160 -62 327 -129
372 -149 17 -7 109 -47 205 -88 96 -42 215 -93 265 -116 l89 -40 49 -133 c27
-73 55 -146 62 -163 7 -16 23 -61 35 -99 l23 -70 -44 -37 c-24 -20 -47 -35
-52 -32 -4 2 -7 1 -5 -4 1 -4 -19 -29 -45 -56 l-47 -47 -30 21 c-16 12 -26 27
-23 32 3 6 1 7 -4 4 -6 -4 -36 4 -66 18 -83 36 -140 41 -212 17 -59 -20 -59
-20 -87 0 -15 10 -28 22 -28 26 0 4 -4 23 -9 42 -7 32 -5 37 15 47 19 9 22 8
17 -6 -4 -14 -3 -14 6 1 6 9 24 30 40 46 16 16 33 45 36 66 8 42 -2 126 -15
126 -5 0 -6 10 -1 22 7 19 0 29 -42 65 -28 24 -57 43 -64 43 -7 0 -13 4 -13 8
0 4 -8 8 -17 9 -10 1 -45 8 -77 16 -47 10 -61 18 -68 37 -5 13 -14 30 -21 38
-6 8 -11 26 -9 41 1 14 -4 33 -11 42 -18 23 -87 59 -114 59 -13 0 -24 6 -24
15 -3 27 -4 30 -24 58 -11 15 -45 40 -75 56 -36 18 -54 34 -53 45 0 10 -1 15
-4 12 -3 -3 -22 3 -42 13 -26 14 -37 26 -39 45 -1 14 0 26 3 26 3 0 69 -25
148 -56z m-1829 -425 c-3 -5 -15 -9 -26 -9 -30 0 -102 -44 -122 -74 -26 -40
-21 -93 12 -124 l27 -27 -28 -85 c-87 -264 -174 -718 -213 -1112 -6 -65 -7
-67 -28 -56 -37 19 -181 170 -225 236 -51 75 -138 249 -174 347 -66 178 -132
459 -160 678 -15 122 -20 117 73 92 117 -31 223 -8 281 63 l24 29 45 -21 c37
-17 65 -21 155 -21 96 0 116 3 159 24 33 16 52 34 60 52 9 26 15 28 66 31 55
3 85 -6 74 -23z m-1191 -125 c65 6 67 5 67 -16 0 -62 33 -367 50 -468 22 -127
72 -331 97 -398 9 -23 13 -45 10 -48 -8 -8 -151 68 -247 131 -41 27 -119 93
-173 147 l-99 98 37 35 c34 31 37 39 33 72 l-5 38 46 -3 c119 -7 171 108 121
269 -10 35 -33 85 -49 110 l-29 47 36 -10 c21 -6 67 -8 105 -4z m1807 -304 c9
-17 5 -28 -20 -65 -19 -27 -36 -69 -42 -103 -9 -49 -16 -61 -44 -80 l-34 -22
0 32 c0 18 3 76 6 129 l7 96 56 15 c31 9 57 17 58 17 1 1 7 -8 13 -19z m2488
-597 c103 -390 179 -783 236 -1220 23 -175 24 -187 8 -212 -10 -14 -12 -22 -4
-18 8 5 15 0 21 -15 11 -31 40 -406 48 -631 l6 -184 -24 -6 c-30 -8 -64 -9
-57 -1 4 3 -9 32 -28 65 -18 33 -28 56 -21 52 6 -4 -14 18 -46 49 -32 31 -66
59 -74 62 -14 6 -14 9 2 26 19 21 41 28 29 8 -4 -7 -3 -8 5 -4 6 4 9 11 6 16
-3 5 5 16 17 24 12 9 19 16 15 16 -9 0 43 93 57 102 6 4 7 8 2 8 -4 0 -2 10 6
23 22 33 49 130 39 140 -11 11 -51 0 -51 -14 0 -5 -6 -9 -14 -9 -7 0 -25 -9
-40 -21 -14 -11 -31 -17 -37 -13 -7 4 -9 3 -6 -3 4 -6 1 -16 -7 -22 -11 -9
-13 3 -11 71 4 127 -3 139 -54 89 -16 -16 -33 -26 -36 -23 -4 4 -6 3 -5 -3 4
-20 0 -32 -20 -53 -12 -12 -18 -22 -15 -22 3 0 3 -5 -1 -11 -8 -14 -36 60 -29
79 2 6 1 12 -4 12 -5 0 -16 20 -25 45 -10 25 -20 45 -23 45 -10 0 -30 -27 -43
-60 -16 -39 -17 -41 -26 -90 -7 -43 -12 -48 -21 -24 -4 10 -17 30 -30 44 -13
14 -22 33 -19 42 2 12 -1 15 -12 11 -11 -5 -13 -3 -7 7 5 8 4 11 -3 6 -6 -3
-18 1 -27 10 -10 10 -20 13 -25 8 -11 -11 -14 -124 -5 -166 7 -35 -1 -35 -42
0 -28 24 -33 34 -35 85 -2 40 -8 63 -20 74 -10 9 -18 21 -18 28 0 6 -18 22
-40 35 -22 14 -40 29 -40 34 0 5 3 7 6 3 10 -9 52 47 58 76 2 14 1 28 -2 30
-4 2 -2 3 5 1 6 -1 42 4 80 13 37 8 76 16 85 16 9 1 15 3 13 5 -2 3 19 16 47
31 47 24 114 81 148 126 22 29 40 95 40 149 0 52 -10 57 -61 31 -16 -9 -35
-13 -41 -9 -7 4 -8 3 -4 -4 8 -13 -15 -19 -81 -24 -37 -3 -42 -1 -37 14 13 44
-51 88 -129 88 -41 0 -44 2 -40 24 7 33 -55 101 -93 104 -16 1 -32 6 -37 11
-24 24 -205 -43 -214 -80 -4 -16 -58 -35 -90 -32 -7 0 -13 -4 -13 -10 0 -6 -3
-8 -6 -4 -4 3 -13 0 -21 -8 -12 -13 -18 -13 -43 0 -37 19 -150 21 -150 2 0 -7
5 -18 12 -25 9 -9 4 -12 -22 -12 -91 0 -148 -40 -157 -109 -8 -56 -23 -62 -23
-9 -1 48 -14 125 -23 135 -7 6 -168 -17 -179 -26 -4 -3 -3 -24 1 -46 22 -103
23 -115 5 -115 -23 0 -72 -37 -79 -60 -4 -11 -30 -44 -59 -73 -74 -75 -92
-146 -60 -240 15 -44 74 -109 132 -147 l23 -15 -35 -83 c-20 -45 -54 -114 -77
-153 -48 -82 -186 -269 -199 -269 -19 0 -64 58 -97 127 -44 92 -60 186 -47
288 6 42 8 77 7 79 -6 5 -93 -20 -102 -29 -5 -6 -15 -55 -21 -109 -6 -55 -13
-102 -15 -104 -7 -7 -76 26 -106 51 -17 14 -60 92 -113 206 l-87 184 7 111 6
111 44 57 c157 202 265 479 308 788 l12 85 86 7 c48 3 95 9 105 12 11 4 45 -6
81 -24 74 -36 129 -49 237 -58 44 -4 78 -11 75 -16 -9 -15 42 -27 140 -33 106
-6 212 9 412 56 68 16 183 37 256 46 73 9 168 26 210 37 42 11 83 21 90 21 6
0 12 4 12 9 0 4 4 8 9 8 5 0 20 4 33 9 13 5 27 9 32 9 5 0 12 4 15 10 3 5 14
13 24 19 30 16 127 115 127 129 0 7 6 19 13 26 21 20 30 66 28 141 l-2 67 29
0 c28 0 29 -2 60 -117z m-2663 -310 c34 -9 104 -14 213 -15 145 -1 162 -2 158
-17 -3 -9 -15 -47 -27 -86 -21 -69 -42 -124 -77 -197 -10 -20 -41 -55 -70 -77
-95 -75 -226 -257 -269 -375 -16 -44 -19 -46 -55 -46 -37 0 -38 1 -40 38 -1
20 -3 57 -5 82 -4 68 25 399 47 527 33 192 35 197 58 188 9 -4 40 -14 67 -22z
m6317 -1290 c-19 -27 -36 -62 -227 -463 -51 -107 -132 -276 -180 -375 -47 -99
-102 -214 -121 -255 -37 -82 -24 11 -139 -1015 -31 -279 -87 -775 -114 -1009
-6 -49 -12 -90 -14 -92 -7 -8 -298 -36 -304 -30 -4 3 12 90 35 193 23 103 38
190 34 194 -4 4 -54 19 -112 34 -58 14 -129 33 -159 42 l-53 15 33 20 c102 62
200 178 267 313 38 76 56 134 83 272 l13 62 45 3 c34 2 47 7 49 21 3 14 -4 17
-43 17 l-46 0 6 33 c18 105 25 187 25 310 l0 137 39 0 c24 0 41 5 44 14 8 20
-2 26 -45 26 -21 0 -38 4 -38 9 0 4 -9 61 -20 124 -21 118 -63 254 -106 339
l-24 48 50 25 c46 23 60 42 44 58 -4 3 -28 -5 -55 -18 -58 -30 -68 -31 -76 -7
-7 17 -38 54 -100 120 l-32 33 54 64 c81 95 161 275 123 275 -8 0 -48 -22 -89
-49 -40 -27 -74 -48 -75 -48 -1 1 2 37 5 80 l6 79 355 118 c325 108 568 195
790 283 47 19 87 32 89 31 2 -2 -6 -15 -17 -31z m-4151 -210 c5 -14 7 -33 5
-40 -3 -8 -1 -11 4 -8 6 3 10 1 10 -4 0 -18 0 -19 27 -48 14 -15 40 -57 58
-92 l34 -64 -38 -27 c-75 -55 -155 -182 -195 -312 -4 -14 -16 -18 -53 -18 -26
0 -53 -4 -60 -8 -6 -4 -60 -201 -118 -437 l-107 -429 -226 -521 c-191 -439
-277 -618 -323 -669 -7 -8 22 109 220 877 l68 268 -364 357 c-201 196 -370
368 -378 381 -12 23 -8 29 90 127 96 96 242 279 293 369 39 67 122 239 122
253 0 7 12 17 26 22 21 8 42 5 99 -15 155 -53 496 -86 600 -57 22 6 51 13 65
15 32 5 31 9 -4 53 l-29 37 27 -5 c14 -3 29 -2 32 3 2 4 10 6 17 4 7 -3 26 -1
42 4 44 14 45 13 56 -16z m-5471 -78 c0 -8 -9 -29 -20 -47 -20 -33 -26 -93
-12 -114 11 -16 48 -34 72 -34 12 0 18 -4 15 -10 -10 -16 33 -86 76 -123 44
-38 110 -59 175 -56 21 1 50 -3 64 -8 80 -32 240 -21 302 21 18 12 39 34 46
50 13 26 16 27 65 21 29 -4 55 -10 59 -14 3 -3 13 -45 21 -92 27 -160 88 -254
192 -300 41 -19 70 -23 161 -24 131 -2 179 -20 283 -104 63 -51 116 -73 205
-86 42 -7 45 -9 40 -34 -3 -14 -20 -123 -38 -241 l-33 -215 -308 -485 -308
-485 -23 -215 c-13 -118 -27 -243 -30 -276 l-7 -62 -101 -21 c-217 -45 -468
-77 -785 -101 -79 -6 -145 -9 -148 -6 -7 7 44 115 72 152 14 18 25 36 25 40 0
16 -77 -8 -122 -38 -45 -30 -138 -137 -138 -159 0 -16 -58 -10 -64 7 -8 20 -8
124 0 191 7 51 8 53 43 62 20 5 85 14 145 21 60 6 144 22 186 36 189 59 329
213 392 429 21 72 23 100 23 290 0 209 0 210 -28 266 -34 70 -100 132 -175
167 -49 22 -71 26 -157 26 -114 1 -153 -13 -218 -80 -77 -80 -93 -158 -57
-291 75 -282 35 -475 -106 -517 -20 -6 -21 -4 -12 50 5 31 6 59 4 62 -3 2 -17
-23 -32 -57 -22 -51 -31 -61 -51 -61 -14 0 -37 13 -54 29 l-29 29 -1 199 c0
109 -4 245 -9 303 -6 58 -13 209 -16 336 l-7 231 39 6 c22 4 62 7 89 7 161 1
256 40 371 154 89 90 136 162 159 251 25 99 15 169 -33 226 -65 78 -218 95
-325 36 -57 -32 -76 -71 -88 -179 -14 -130 -25 -163 -66 -209 -36 -40 -66 -60
-110 -73 l-23 -7 0 389 c0 214 3 457 7 539 l6 151 131 4 c119 3 136 6 181 30
57 31 85 35 85 13z m3846 -195 c17 -77 51 -146 96 -195 l48 -53 -26 -21 c-15
-12 -29 -21 -33 -21 -3 0 -13 17 -22 38 -9 20 -46 98 -82 173 l-65 137 39 -17
c27 -11 41 -24 45 -41z m4003 -106 c7 -19 33 -65 58 -101 35 -51 42 -68 31
-74 -21 -14 -24 -12 -62 34 -30 36 -38 40 -53 31 -10 -7 -17 -19 -17 -28 1 -9
1 -16 0 -16 0 0 -15 4 -32 9 -31 9 -33 7 -154 -130 -67 -76 -123 -139 -125
-139 -1 0 0 12 2 28 2 15 12 101 23 191 11 90 21 166 23 168 2 2 57 14 123 28
65 14 124 27 129 29 27 11 42 3 54 -30z m-1348 -147 c0 -1 7 -81 14 -177 70
-899 70 -897 35 -958 -14 -24 -37 -50 -52 -58 -45 -23 -119 -18 -178 14 -77
40 -81 51 -37 105 20 25 37 48 37 51 0 10 -35 -7 -70 -35 l-36 -27 -17 42
c-47 113 -59 303 -32 513 23 180 11 163 110 163 47 0 85 2 85 4 0 2 3 11 6 20
5 14 -6 16 -80 16 -47 0 -86 2 -86 4 0 2 7 41 16 87 11 55 14 108 10 155 l-6
71 31 9 c25 7 247 8 250 1z m-17987 -1238 c4 -4 -8 -35 -29 -68 l-36 -61 -50
0 c-57 0 -57 -3 -13 96 l24 54 47 -6 c27 -4 52 -10 57 -15z m776 -66 c0 -10
-7 -99 -15 -198 -8 -99 -15 -189 -15 -201 0 -19 -13 -23 -157 -46 -87 -14
-159 -25 -161 -24 -1 2 13 101 31 222 l33 219 54 2 c116 5 162 14 156 29 -4
11 4 14 34 14 32 0 40 -4 40 -17z m16740 -423 c19 -6 87 -17 150 -25 63 -8
131 -19 151 -25 49 -14 117 -65 124 -93 8 -31 -201 -461 -218 -450 -9 5 -293
193 -314 207 -1 1 7 82 17 181 11 99 20 188 20 198 0 19 19 22 70 7z m2129
-347 c-8 -10 -40 -48 -73 -85 -58 -67 -60 -68 -108 -68 -27 0 -48 4 -46 8 2 5
23 40 48 80 l44 71 61 4 c33 2 66 4 74 5 11 2 11 -1 0 -15z m-10479 -3432 c8
-5 57 -33 108 -61 50 -28 92 -55 92 -59 0 -4 6 -8 13 -8 21 0 67 -35 60 -46
-4 -6 -1 -7 6 -2 8 4 18 -1 27 -14 9 -12 20 -19 25 -15 11 7 248 -146 249
-160 0 -10 -53 -53 -57 -46 -2 3 -12 -10 -23 -27 -11 -18 -24 -33 -29 -33 -5
0 -18 -14 -29 -31 l-19 -31 -41 74 c-41 76 -146 222 -175 247 -9 7 -14 17 -11
22 3 5 -2 9 -11 9 -9 0 -13 5 -10 10 3 6 2 10 -3 10 -16 0 -52 41 -46 52 4 6
1 9 -7 6 -18 -6 -59 31 -52 47 3 10 -2 12 -16 8 -14 -3 -23 0 -27 11 -3 9 -10
16 -14 16 -13 0 -79 44 -80 53 0 7 25 -5 70 -32z"/>
</g>
</svg>
